<svg width="200" height="60" viewBox="0 0 200 60" fill="none" xmlns="http://www.w3.org/2000/svg">
<rect x="2.87793" width="197.122" height="60" rx="30" fill="white"/>
<circle cx="30" cy="30" r="30" fill="#5FB34F"/>
<path d="M29.518 33.0655C29.9074 34.0298 30.2826 34.7992 30.6434 35.3738C31.0246 35.8926 31.5522 36.4017 32.226 36.9012L32.271 37.0125C32.8358 37.0296 33.4544 36.861 34.1267 36.5065C34.8698 36.1148 35.3467 35.436 35.5574 34.4702C35.7532 33.4672 35.5589 32.2425 34.9747 30.7961L34.75 30.2397C35.5584 29.9035 36.1572 29.6328 36.5465 29.4276L38.3817 28.3927C38.7559 28.1504 39.3499 27.8147 40.1638 27.3857C40.7653 27.0685 41.5989 26.7416 42.6645 26.4047L42.9935 27.3784L44.1755 26.9577C45.7933 30.9633 46.5297 34.0616 46.3846 36.2525C46.2748 38.4247 45.6328 40.0228 44.4584 41.0468C43.3343 42.0892 41.4454 43.31 38.7916 44.709C36.6686 45.8282 34.9027 46.5567 33.4941 46.8945C32.1358 47.2507 30.7897 47.1056 29.4557 46.4593C27.2587 45.908 25.2393 44.5209 23.3972 42.2979C21.5551 40.075 20.0124 37.4244 18.7691 34.346C17.316 30.7483 16.5319 27.5853 16.417 24.8567C16.441 22.6847 17.1857 20.6501 18.6512 18.7529C20.1017 16.8185 21.9592 15.2544 24.2238 14.0606C26.9484 12.6242 29.4778 12.033 31.8121 12.2869C34.1818 12.5222 36.2284 13.4452 37.9519 15.0558C39.6958 16.6107 41.0621 18.6121 42.0508 21.0599C42.1407 21.2825 42.4696 22.2562 43.0376 23.9812C42.4402 24.5211 40.7207 25.63 37.8792 27.308C35.073 28.9673 32.5553 30.3846 30.3261 31.5598C29.7953 31.8396 29.3986 32.0262 29.136 32.1197L29.518 33.0655ZM26.8246 31.1789C27.2942 31.0663 28.5374 30.4784 30.5543 29.4151C32.5004 28.3891 34.5833 27.2236 36.8029 25.9184C39.0076 24.5762 40.363 23.6817 40.8692 23.2349C40.4906 22.0849 40.2039 21.2689 40.0091 20.7867C38.5111 17.0778 36.5465 14.6046 34.1153 13.367C31.7045 12.0737 28.4823 12.4904 24.4485 14.6169C22.3254 15.7362 20.5489 17.2351 19.1188 19.1137C17.7091 20.9365 16.9902 22.8225 16.9621 24.7718C17.077 27.5003 17.9135 30.7932 19.4715 34.6505C21.0294 38.5077 22.9969 41.5193 25.3738 43.6852C27.7508 45.851 30.3308 46.4478 33.114 45.4753L35.4719 44.2998C36.7049 43.7397 37.6575 43.2825 38.3298 42.9281C39.9929 42.0513 41.3333 41.1197 42.3512 40.1333C43.4045 39.1281 44.065 37.9477 44.3328 36.5918C44.628 35.9414 44.6019 34.9204 44.2545 33.529C43.8922 32.1006 43.2452 29.9674 42.3135 27.1296C41.7378 27.2981 41.0254 27.6062 40.1762 28.0539L38.1287 29.2008C37.719 29.4618 37.1427 29.7881 36.3996 30.1798C35.975 30.4037 35.7022 30.525 35.581 30.5439L35.7608 30.989C36.345 32.4354 36.4685 33.6974 36.1312 34.775C35.8293 35.8339 35.236 36.5965 34.3514 37.0629C31.6268 38.4992 29.2527 36.8717 27.2291 32.1803L26.8246 31.1789ZM33.5416 22.3069C33.5865 22.4181 33.4852 22.5391 33.2375 22.6696C33.0606 22.7629 32.6992 22.9309 32.1535 23.1736C31.6078 23.4163 30.9634 23.7336 30.2203 24.1253L26.7928 25.9997C26.1205 26.3541 25.6632 26.5502 25.421 26.588C25.1787 26.6257 25.0051 26.5148 24.9003 26.2551C23.7468 23.3993 24.6739 21.1786 27.6815 19.593C28.3538 19.2386 29.0479 19.0976 29.7639 19.17C30.5356 19.168 31.2332 19.4076 31.8567 19.8886C32.5156 20.351 32.9948 20.9531 33.2944 21.6949L33.5416 22.3069ZM31.1892 20.308C30.6094 20.2538 30.0187 20.3853 29.4172 20.7024C28.1787 21.3553 27.3663 22.0535 26.9799 22.797C26.6289 23.5219 26.527 24.3854 26.6743 25.3874L27.6602 24.8001L29.9956 23.569L32.3003 22.4214L32.8536 22.1973L32.7637 21.9747C32.4191 21.1217 31.9195 20.5753 31.2647 20.3357L31.1892 20.308Z" fill="white"/>
<path d="M85.911 24.378C85.827 22.782 85.463 21.424 84.819 20.304C84.175 19.184 83.349 18.26 82.341 17.532C81.361 16.776 80.227 16.216 78.939 15.852C77.651 15.46 76.321 15.208 74.949 15.096C73.605 14.984 72.247 14.998 70.875 15.138C69.531 15.278 68.285 15.502 67.137 15.81C67.221 18.134 67.263 20.57 67.263 23.118C67.291 25.666 67.305 28.2 67.305 30.72C67.305 33.24 67.305 35.704 67.305 38.112C67.305 40.492 67.347 42.704 67.431 44.748C67.907 44.804 68.467 44.846 69.111 44.874C69.755 44.902 70.399 44.916 71.043 44.916C71.715 44.888 72.345 44.86 72.933 44.832C73.549 44.776 74.053 44.692 74.445 44.58C74.473 44.58 74.487 44.58 74.487 44.58C74.515 44.552 74.543 44.538 74.571 44.538V44.496C74.515 42.452 74.473 40.828 74.445 39.624C74.445 38.42 74.445 37.468 74.445 36.768C74.445 36.04 74.445 35.494 74.445 35.13C74.445 34.738 74.431 34.346 74.403 33.954C75.747 34.178 77.063 34.122 78.351 33.786C79.639 33.422 80.815 32.848 81.879 32.064C82.943 31.28 83.825 30.328 84.525 29.208C85.253 28.088 85.701 26.856 85.869 25.512C85.897 25.344 85.911 25.176 85.911 25.008C85.911 24.812 85.911 24.616 85.911 24.42V24.378ZM78.561 22.614C78.925 22.838 79.205 23.118 79.401 23.454C79.625 23.79 79.765 24.154 79.821 24.546C79.905 24.938 79.891 25.33 79.779 25.722C79.695 26.114 79.541 26.464 79.317 26.772C78.981 27.108 78.575 27.36 78.099 27.528C77.651 27.668 77.175 27.766 76.671 27.822C76.195 27.878 75.705 27.92 75.201 27.948C74.697 27.948 74.221 27.962 73.773 27.99H73.647C73.507 27.57 73.409 27.108 73.353 26.604C73.325 26.072 73.297 25.526 73.269 24.966C73.269 24.406 73.269 23.846 73.269 23.286C73.297 22.726 73.297 22.194 73.269 21.69C73.297 21.662 73.339 21.648 73.395 21.648C74.291 21.424 75.201 21.396 76.125 21.564C77.049 21.704 77.861 22.054 78.561 22.614ZM93.726 25.47C93.726 25.274 93.712 25.134 93.684 25.05C93.684 24.966 93.684 24.896 93.684 24.84C93.684 24.756 93.684 24.658 93.684 24.546C93.684 24.434 93.684 24.266 93.684 24.042C93.684 23.986 93.558 23.958 93.306 23.958C93.082 23.93 92.802 23.93 92.466 23.958C92.158 23.986 91.85 24.014 91.542 24.042C91.262 24.07 91.066 24.084 90.954 24.084C90.618 24.112 90.338 24.14 90.114 24.168C89.89 24.168 89.68 24.168 89.484 24.168C89.288 24.168 89.078 24.168 88.854 24.168C88.63 24.14 88.35 24.112 88.014 24.084C87.902 27.78 87.874 31.35 87.93 34.794C88.014 38.238 88.056 41.682 88.056 45.126C88.728 45.07 89.302 45.056 89.778 45.084C90.282 45.112 90.744 45.126 91.164 45.126C91.584 45.154 91.99 45.154 92.382 45.126C92.774 45.098 93.208 45.014 93.684 44.874V44.706C93.684 43.67 93.67 42.704 93.642 41.808C93.642 40.884 93.642 39.988 93.642 39.12C93.642 38.224 93.628 37.342 93.6 36.474C93.572 35.606 93.544 34.682 93.516 33.702C93.488 32.918 93.6 32.316 93.852 31.896C94.104 31.476 94.454 31.168 94.902 30.972C95.378 30.776 95.924 30.678 96.54 30.678C97.184 30.678 97.884 30.72 98.64 30.804C98.668 30.804 98.85 30.832 99.186 30.888C99.55 30.944 99.9 31.014 100.236 31.098C100.376 31.154 100.516 31.21 100.656 31.266C100.824 31.294 100.978 31.336 101.118 31.392L101.496 31.518C101.468 31.098 101.454 30.65 101.454 30.174C101.454 29.698 101.454 29.18 101.454 28.62C101.454 28.032 101.454 27.374 101.454 26.646C101.482 25.918 101.496 25.078 101.496 24.126C101.496 24.098 101.286 24.084 100.866 24.084C100.474 24.056 99.984 24.056 99.396 24.084C98.808 24.112 98.178 24.182 97.506 24.294C96.834 24.378 96.232 24.504 95.7 24.672C95.308 24.812 94.902 24.966 94.482 25.134C94.09 25.302 93.838 25.414 93.726 25.47ZM120.361 24.084C119.465 24.028 118.667 23.986 117.967 23.958C117.295 23.93 116.721 23.902 116.245 23.874C116.161 23.874 116.007 23.874 115.783 23.874C115.559 23.874 115.335 23.874 115.111 23.874C114.887 23.846 114.677 23.846 114.481 23.874C114.313 23.874 114.229 23.888 114.229 23.916C114.229 24.252 114.187 24.588 114.103 24.924C114.047 25.232 114.033 25.61 114.061 26.058C113.865 25.582 113.627 25.218 113.347 24.966C113.067 24.686 112.745 24.49 112.381 24.378C112.017 24.238 111.611 24.168 111.163 24.168C110.743 24.14 110.281 24.126 109.777 24.126C108.797 24.154 107.873 24.42 107.005 24.924C106.137 25.4 105.381 26.072 104.737 26.94C104.121 27.78 103.631 28.788 103.267 29.964C102.903 31.14 102.721 32.428 102.721 33.828C102.721 34.948 102.833 36.166 103.057 37.482C103.309 38.798 103.687 40.016 104.191 41.136C104.695 42.256 105.325 43.194 106.081 43.95C106.865 44.706 107.803 45.084 108.895 45.084C109.875 45.084 110.869 44.846 111.877 44.37C112.913 43.894 113.767 43.32 114.439 42.648C114.439 42.928 114.411 43.166 114.355 43.362C114.299 43.558 114.271 43.81 114.271 44.118C114.271 44.342 114.299 44.538 114.355 44.706C114.439 44.874 114.579 44.986 114.775 45.042C115.083 45.042 115.377 45.028 115.657 45C115.965 44.944 116.273 44.916 116.581 44.916C117.029 44.916 117.477 44.944 117.925 45C118.401 45.028 118.863 45.042 119.311 45.042H119.815C120.151 44.986 120.319 44.776 120.319 44.412C120.347 44.048 120.361 43.684 120.361 43.32C120.557 40.324 120.599 37.37 120.487 34.458C120.375 31.518 120.361 28.536 120.445 25.512V25.092C120.445 24.924 120.431 24.756 120.403 24.588C120.403 24.42 120.389 24.252 120.361 24.084ZM108.139 32.442C108.279 31.742 108.671 31.126 109.315 30.594C109.987 30.034 110.897 29.754 112.045 29.754C112.633 29.754 113.067 29.796 113.347 29.88C113.655 29.964 113.865 30.16 113.977 30.468C114.117 30.776 114.187 31.224 114.187 31.812C114.215 32.372 114.229 33.142 114.229 34.122C114.229 34.906 114.215 35.62 114.187 36.264C114.187 36.88 114.103 37.412 113.935 37.86C113.795 38.28 113.543 38.616 113.179 38.868C112.843 39.092 112.325 39.204 111.625 39.204C110.449 39.204 109.525 38.77 108.853 37.902C108.209 37.006 107.887 35.928 107.887 34.668C107.887 34.304 107.901 33.94 107.929 33.576C107.957 33.184 108.027 32.806 108.139 32.442ZM129.205 14.508C128.841 14.452 128.421 14.424 127.945 14.424C127.469 14.424 126.965 14.438 126.433 14.466C125.929 14.466 125.411 14.48 124.879 14.508C124.375 14.508 123.913 14.508 123.493 14.508C123.521 19.604 123.479 24.658 123.367 29.67C123.255 34.682 123.297 39.792 123.493 45C123.913 45.056 124.375 45.084 124.879 45.084C125.411 45.084 125.929 45.07 126.433 45.042C126.937 45.014 127.413 45 127.861 45C128.337 44.972 128.729 44.972 129.037 45C129.149 44.384 129.219 43.712 129.247 42.984C129.275 42.228 129.289 41.486 129.289 40.758C129.289 40.03 129.275 39.33 129.247 38.658C129.219 37.986 129.205 37.398 129.205 36.894C129.681 37.51 130.101 38.154 130.465 38.826C130.857 39.498 131.221 40.184 131.557 40.884C131.893 41.556 132.229 42.242 132.565 42.942C132.929 43.642 133.321 44.328 133.741 45C134.161 45.084 134.665 45.14 135.253 45.168C135.869 45.196 136.499 45.196 137.143 45.168C137.787 45.14 138.403 45.098 138.991 45.042C139.607 45.014 140.111 45 140.503 45C139.439 42.844 138.263 40.772 136.975 38.784C135.715 36.768 134.455 34.738 133.195 32.694C134.371 31.126 135.561 29.572 136.765 28.032C137.969 26.464 139.089 24.882 140.125 23.286C139.733 23.258 139.229 23.272 138.613 23.328C137.997 23.356 137.367 23.384 136.723 23.412C136.107 23.412 135.505 23.412 134.917 23.412C134.329 23.384 133.853 23.3 133.489 23.16C133.069 23.636 132.691 24.14 132.355 24.672C132.047 25.204 131.739 25.736 131.431 26.268C131.123 26.772 130.787 27.276 130.423 27.78C130.087 28.284 129.681 28.746 129.205 29.166C129.121 28.522 129.093 27.682 129.121 26.646C129.177 25.61 129.205 24.63 129.205 23.706V14.508ZM157.846 30.468C157.846 28.956 157.566 27.598 157.006 26.394C156.446 25.162 155.508 24.266 154.192 23.706C153.464 23.538 152.666 23.412 151.798 23.328C150.93 23.216 150.062 23.16 149.194 23.16C148.326 23.16 147.5 23.202 146.716 23.286C145.96 23.37 145.316 23.482 144.784 23.622C143.412 23.986 142.348 24.686 141.592 25.722C140.864 26.758 140.472 27.892 140.416 29.124C140.388 30.328 140.724 31.504 141.424 32.652C142.152 33.772 143.3 34.598 144.868 35.13C145.652 35.466 146.45 35.704 147.262 35.844C148.074 35.984 148.802 36.152 149.446 36.348C150.09 36.516 150.608 36.768 151 37.104C151.392 37.44 151.546 37.944 151.462 38.616C151.49 39.428 151.238 39.988 150.706 40.296C150.174 40.604 149.586 40.73 148.942 40.674C148.298 40.59 147.682 40.352 147.094 39.96C146.534 39.54 146.24 39.008 146.212 38.364C145.344 38.364 144.322 38.35 143.146 38.322C141.97 38.266 140.92 38.294 139.996 38.406V38.49V38.616C139.996 39.736 140.22 40.744 140.668 41.64C141.144 42.536 141.788 43.292 142.6 43.908C143.44 44.524 144.434 44.986 145.582 45.294C146.73 45.602 148.018 45.728 149.446 45.672C151.07 45.7 152.568 45.42 153.94 44.832C155.312 44.244 156.32 43.264 156.964 41.892C157.496 40.352 157.692 39.064 157.552 38.028C157.412 36.964 157.034 35.928 156.418 34.92C155.774 34.08 154.766 33.478 153.394 33.114C152.022 32.722 150.552 32.414 148.984 32.19C148.34 31.966 147.85 31.63 147.514 31.182C147.178 30.734 147.01 30.286 147.01 29.838C147.01 29.39 147.164 28.984 147.472 28.62C147.808 28.228 148.298 27.976 148.942 27.864C149.306 27.836 149.67 27.892 150.034 28.032C150.426 28.144 150.762 28.326 151.042 28.578C151.35 28.83 151.574 29.124 151.714 29.46C151.882 29.796 151.924 30.132 151.84 30.468C152.792 30.664 153.8 30.748 154.864 30.72C155.956 30.692 156.95 30.608 157.846 30.468ZM176.88 24.084C175.984 24.028 175.186 23.986 174.486 23.958C173.814 23.93 173.24 23.902 172.764 23.874C172.68 23.874 172.526 23.874 172.302 23.874C172.078 23.874 171.854 23.874 171.63 23.874C171.406 23.846 171.196 23.846 171 23.874C170.832 23.874 170.748 23.888 170.748 23.916C170.748 24.252 170.706 24.588 170.622 24.924C170.566 25.232 170.552 25.61 170.58 26.058C170.384 25.582 170.146 25.218 169.866 24.966C169.586 24.686 169.264 24.49 168.9 24.378C168.536 24.238 168.13 24.168 167.682 24.168C167.262 24.14 166.8 24.126 166.296 24.126C165.316 24.154 164.392 24.42 163.524 24.924C162.656 25.4 161.9 26.072 161.256 26.94C160.64 27.78 160.15 28.788 159.786 29.964C159.422 31.14 159.24 32.428 159.24 33.828C159.24 34.948 159.352 36.166 159.576 37.482C159.828 38.798 160.206 40.016 160.71 41.136C161.214 42.256 161.844 43.194 162.6 43.95C163.384 44.706 164.322 45.084 165.414 45.084C166.394 45.084 167.388 44.846 168.396 44.37C169.432 43.894 170.286 43.32 170.958 42.648C170.958 42.928 170.93 43.166 170.874 43.362C170.818 43.558 170.79 43.81 170.79 44.118C170.79 44.342 170.818 44.538 170.874 44.706C170.958 44.874 171.098 44.986 171.294 45.042C171.602 45.042 171.896 45.028 172.176 45C172.484 44.944 172.792 44.916 173.1 44.916C173.548 44.916 173.996 44.944 174.444 45C174.92 45.028 175.382 45.042 175.83 45.042H176.334C176.67 44.986 176.838 44.776 176.838 44.412C176.866 44.048 176.88 43.684 176.88 43.32C177.076 40.324 177.118 37.37 177.006 34.458C176.894 31.518 176.88 28.536 176.964 25.512V25.092C176.964 24.924 176.95 24.756 176.922 24.588C176.922 24.42 176.908 24.252 176.88 24.084ZM164.658 32.442C164.798 31.742 165.19 31.126 165.834 30.594C166.506 30.034 167.416 29.754 168.564 29.754C169.152 29.754 169.586 29.796 169.866 29.88C170.174 29.964 170.384 30.16 170.496 30.468C170.636 30.776 170.706 31.224 170.706 31.812C170.734 32.372 170.748 33.142 170.748 34.122C170.748 34.906 170.734 35.62 170.706 36.264C170.706 36.88 170.622 37.412 170.454 37.86C170.314 38.28 170.062 38.616 169.698 38.868C169.362 39.092 168.844 39.204 168.144 39.204C166.968 39.204 166.044 38.77 165.372 37.902C164.728 37.006 164.406 35.928 164.406 34.668C164.406 34.304 164.42 33.94 164.448 33.576C164.476 33.184 164.546 32.806 164.658 32.442Z" fill="#105C6E" fill-opacity="0.8"/>
</svg>
